<?xml version="1.0" encoding="UTF-8"?>
<svg id="Layer_2" data-name="Layer 2" xmlns="http://www.w3.org/2000/svg" viewBox="0 0 346 249.4">
  <defs>
    <style>
      .cls-1 {
        fill: none;
      }

      .cls-2 {
        fill: #1f3318;
      }

      .cls-3 {
        isolation: isolate;
      }
    </style>
  </defs>
  <g id="Layer_1-2" data-name="Layer 1">
    <g>
      <rect class="cls-1" width="346" height="249.4"/>
      <g>
        <g>
          <path class="cls-2" d="m56,99.9c2.3,3.5,63.6,31.1,67.2,33.1,1.3.7,8.1-.1,9.6-.2,4-.2,14.2-3.8,16-5.9.6-.7.9-27.3.2-27.9-3.9-3.5-8.6-4.2-10.5-5.6-.7-.5-7.1-5.6-10.8-7.4-2.6-1.3-19.3-2.7-21.1-3.2-15.8-4.6-24.7-14.1-33.2-18.5-1.5-.8-7.3-1.1-8.1-.7-.7.3-7.6,5.1-8.5,6.7-1.2,2.2-3.5,25.5-.8,29.6Z"/>
          <path class="cls-2" d="m69,133.8c-4.1,16.9,9.8,31.1,11.2,32.2,5.4,3.9,14.4,7.7,25.6,14.7,4,2.5,20.1-.2,24.7-8.2.9-1.6.6-17.8.1-18.5-2.2-2.6-10.6-8.5-11.9-9.5-11-8-36.6-17.6-38.8-17.6-3.4,0-10.6,5.5-10.9,6.9Z"/>
          <path class="cls-2" d="m86.4,179.6c-2.3,1-4.1,4.5-5.3,8.9-.7,2.4-.4,5.7,0,6.8,2.3,8,11.4,19.5,24.8,19.5,5.8,0,18-5.8,19.1-7.8,1.1-1.9.2-14.2-2.1-16.3-4.6-4.3-13.8-2-15-3.1-5-4.3-20.2-8.6-21.5-8Z"/>
          <path class="cls-2" d="m148.4,152.7c-.9.2-5.1,8.5-5.6,10.4-1.3,4.6-.3,12.1-.9,13.6-1.6,4.5-5.8,7.2-8.1,12.7-.7,1.6-.7,16.8-.1,17.5,1.6,2,12.5,3.3,17.6,1.4,13-5,17.7-26.8,17.4-34.6-.2-5.8-2.8-13.9-8.8-18.7-.5-.6-9.3-2.9-11.5-2.3Z"/>
          <path class="cls-2" d="m190.4,196.3c-6.3-2.5-1-34.1-1.3-39.5-.1-1.7-1.7-6.3-2.4-7.6-.5-.9-8.5-1.3-9.3-.4-1.5,1.7-4.6,42.5-4.6,47,0,2.6,9.3,14.1,10.8,14.5.9.3,13.4.1,17-.4,8.6-1.3,13.1-2.5,16.6-6.6,2.3-2.7,4.6-16.4,4-18.3-1.3-3.7-8.2-10-11.8-9.1-3,.7-15.6,21.7-19,20.4Z"/>
          <path class="cls-2" d="m244.5,78.6c-.8.1-13.6,12.7-14.4,14.2-10.4,19-17.9,33.3-18.5,34.1-8.2,10.5-12.3,12-14.4,17.3-.8,1.9-.5,10.4-.4,10.9,1.4,5.3,5.8,12.2,10.9,12.2,12,0,23.9-16,27.5-26.7,1.1-3.4.7-8.2,3.1-15,2.1-6,3-8.1,3.6-9.3,2.6-5.3,5.2-8.5,6.4-10.9,3.8-7.1,7.8-28.2-3.8-26.8Z"/>
          <path class="cls-2" d="m228.2,214.3c-4-1.8-3.9-5.9-4.1-9.3-.2-3-.1-8.4,1.1-10.1,3.2-5.1,8.4-9.8,10.3-12.9,2.7-4.5,7.1-12.4,9-15.8,4-6.9,13-27.9,10.2-31.5-.5-.7-23.4.4-26.3-2.3-4.1-3.7-2.1-4.6,2.3-10.2,5.5-7.1,24.6-11.5,26.2-11.7,1.8-.2,5.3-.2,7.3.2,3.2.7,10.9,9.6,12.2,11.5,1.5,2.2,5.8,7.9,5.8,12.5,0,6.7-11.8,22.1-14.4,28.9-1.3,3.4-7.9,15.8-8.5,17.7-2.4,8.2-2.1,12.8-3.4,15.3-5,9.7-20.5,21-27.7,17.7Z"/>
        </g>
        <rect class="cls-1" x="125.2" y="36.3" width="107.8" height="49.2"/>
        <g class="cls-3">
          <path class="cls-2" d="m174,63.5h0c.6.5,1.1,1.2,1.6,1.8.5,1.1.5,2.2,0,3.2-.4,1.1-.8,2.2-1,3.3,0,.6.1,1.1.1,1.6,0,.8-.1,1.7-.2,2.5-.1.5-.4.8-.8,1-.2.2-.5.5-.7.7-.3,0-.5.1-.7.2-.5,0-.9-.1-1.3-.2v.4h0c-.3.1-.5.3-.7.5-.3-.2-.6-.2-.8,0-.3.2-.7.3-1.1.3-.5-.2-.9-.3-1.4-.3-1-.1-2.1,0-3.1.2-.5.2-.9.3-1.4.3-1.1-.3-2.1-.4-3.2-.2-1.8.4-3.5.4-5.2-.2-2.1.4-4.1.3-6.1-.2-1.1-.1-1.9-.6-2.5-1.5-.4-.2-.8-.1-1.1.3.3.3.7.6,1.1.8l-.1.1c.2.2.4.4.4.6-.5.5-1.1.8-1.8.9-.3.2-.6.3-.9.3l-.4-.2c-.1.2-.3.2-.6.1-1.3-.2-2.1-.9-2.4-1.9-.4-.2-.6-.6-.7-1,0-.5-.2-.9-.5-1.3,0-.6-.1-1.1-.4-1.6h0c-.1-.2,0-.4.3-.6l.1-.1c-.1-.1-.2-.1-.4,0l.2-.1c.1-.2.1-.3,0-.4.2-.2.2-.4,0-.7v-1.3h-.1l-.2-1.1h0c.2-.7.2-1.5.2-2.2.1-.9.1-1.9,0-2.8.3-.4.3-.7.1-1.1.3-2.3.7-4.5,1-6.8.2-.5.3-.9.5-1.3h.1c.1-.2.3-.4.6-.5.3.2.6.2.9-.1.3-.3.6-.3.9-.1-.1.1,0,.2.1.3.1-.3.4-.4.7-.3v.6c.2-.1.4-.2.6-.3-.1.1,0,.2,0,.2.3-.2.7-.2,1.1.1.5.3.8.7.9,1.3-.1.1-.2.2-.2.4l.3.1c-.2.5-.3.9-.4,1.4-.1.6-.2,1.3-.4,1.9,0,.3-.1.5-.2.8.2-.1.4-.4.5-.7-.1.5-.2.9-.4,1.4.1.1.2.1.3-.1.1,0,.1-.1,0-.2-.1.3-.3.5-.6.6v.4c.2.1.3,0,.4-.2,0,.6,0,1.2-.1,1.7l.3-.1c-.1.5-.3,1-.5,1.5v1c-.2.1-.2.3-.2.5.1,0,.3-.1.4-.2v.2l-.1-.1c-.1.1-.1.2,0,.2-.1.8-.2,1.7-.1,2.5h0c.1.5.2.9.4,1.3,0,.1.1.1.2,0,.2.6.3,1.1.4,1.6,0,.3.1.6.4.7-.1.2-.1.5-.2.7l.3.2.1-.1c-.1-.1-.2-.2-.1-.3h.1c-.1.2,0,.4,0,.5-.1.5-.3,1.1-.3,1.6.3.1.7.1,1,0,.6,0,1.2.1,1.8.3l2.4-.2c0-.2-.1-.3-.3-.5.1,0,.1-.1.2-.2,0-.7-.1-1.4-.4-2.1.3-.2.5-.4.7-.6.1-.3.1-.6.1-1h.1c-.3-.5-.2-.9.3-1.2,0-.5,0-1-.1-1.4.1-.4.2-.9.3-1.3-.1-.6-.2-1.2,0-1.9l.2,3.6h.2v-1.3c.1-.3.1-.6.1-1-.2-.3-.2-.7,0-1.1h0c.2-.2.1-.4-.1-.6v-.6c.1.1.2.1.3-.2v.1h0c.2.2.2.4,0,.6.1.1.2.1.3,0,.2-.3.2-.6.1-.9,0-.4-.1-.8-.2-1.1-.1.4-.3.8-.6,1.1h.4c-.1.2-.2.3-.4.4,0-.5.1-1,.3-1.5-.1-.1-.1-.3-.1-.5l-.2.2c.2-.4.2-.7.2-1.1.1.4.2.8.4,1.3.2-.3.3-.6.3-1-.1-.6-.2-1.1-.2-1.8h0c0-.2,0-.5-.2-.7l-.2.1c-.1.4,0,.7.1,1,0,.4-.1.7-.3.8.1-.2.1-.4,0-.6l-.2.2c.2-.4.3-.8.1-1.3q.1-.1.1-.3l.2.1c.2-.7.3-1.4.3-2.1-.1-.2-.2-.4-.1-.7.1-.1.1-.3,0-.5.1-1,.1-1.9,0-2.9-.2.8-.2,1.6-.1,2.4-.2,1-.3,2-.3,2.9l-.2.3c-.1-1.2-.1-2.4,0-3.6l-.2.2v-.5h-.1c0-.2.1-.3.3-.3v.2h0v-.4l-.2.1c.3-.3.4-.7.2-1.2-.1,0-.2.1-.1.2l-.1-.1c-.2.3-.4.6-.5.9l.1-1.2.1.3c.2-.4.3-.8.4-1.2l-.1-.1c.1-.2.1-.4.2-.6l-.3-.2c-.2.6-.3,1.1-.2,1.7.1-1,.1-2,0-2.9.3-1,.4-2.1.3-3.2-.1.2-.3.3-.4.5.1-.7.1-1.4-.1-2.1.7,0,1.5.1,2.2.3.8-.2,1.5,0,2,.6.2-.1.5,0,.7.2.4.2.8.3,1.2.5.4.3.8.5,1.2.8l-.3.2c.3.3.7.6,1.2.7.2.6.1,1.2-.4,1.8l-.1.1c.2.2.3.5.3.7l.2-.1-.1.3c-.2,0-.2-.2-.1-.5-.3.3-.5.6-.5,1,0-.3,0-.7.1-1-.4.2-.6.5-.8.9.2.3.2.6,0,.9l-.3-.1c-.2.4-.4.7-.5,1.1-.4,0-.6.3-.6.7.1.1.1.2,0,.2l-.4-.6c-.1,0-.2.1-.3.2-.1.4-.3.7-.4,1,.1-.1.2-.2.4-.4.1.5.1,1,.2,1.5-.1,0-.2,0-.2.1v.2l.1-.1c-.1.1-.1.2,0,.3h.2c-.1.5-.2,1-.3,1.5.1.2.1.4,0,.5,0,.9-.1,1.7-.1,2.5.3.5.2,1-.1,1.4v1.6c-.1.8-.2,1.6-.4,2.4-.1.1-.2.1-.3.1.1-.4.1-.8.1-1.2q-.1.1-.1,0v-.2c.1,0,.2-.1.2-.3l.1-2c-.2-.4-.2-.8-.2-1.2s.1-.7.2-1.1c-.1-.1-.1-.2-.1-.3q0,.1.1.1c.1-.1.1-.2.1-.4,0-.1-.1-.1-.2-.1-.1-.3-.1-.6,0-.8-.1-.2-.2-.5-.3-.7,0-.1,0-.2-.2-.2.3-.7.5-1.5.5-2.4l-.1-.1-.3.3h0l-.2.2c0-.2,0-.4-.1-.5-.2.5-.2,1-.2,1.5,0,.9-.1,1.8-.1,2.7-.1.3-.1.6.1.8-.2.7-.2,1.3,0,2,0,0,.1,0,.1-.1v.3h-.1v1.6c.1,1.1.1,2.3,0,3.4.2.2.2.4,0,.5.1.4.1.7.1,1l.1.4c.6-.6.9-1.4.9-2.4,0-.2,0-.4.1-.7.3-.1.5-.4.5-.9.2.5.2.9,0,1.3.1.8,0,1.7-.1,2.5l.2.2c.1-.5.3-.9.7-1.2-.1.5-.2.9-.3,1.4.1.2.1.4,0,.5.2,0,.4-.1.5-.3,0,.2-.1.3-.1.5.3.2.6.2.9.2.1.2.1.5,0,.7.1.5,0,1-.1,1.5.1.3.1.7.1,1-.3.2-.4.5-.3.7-.1.1-.1.2,0,.3,2.2.1,4.3-.1,6.4-.4.5-.3.7-.8.7-1.4l-.1-.1c.7-1.8,1-3.7.9-5.6-.2-.8-.3-1.6-.2-2.4.2-.5.2-1,0-1.5v-.5h0c0-.6.2-1.1.7-1.6,1.5-1,3.1-1.1,4.8-.4.4-.1.8-.1,1.1.1h-.1c.4.5.9.8,1.5,1l.1.1-.1.1.3.2.1.3Zm-34.8,13.1l.2.3v-.1l-.2-.2Zm4-11.2h0c.1-.2.2-.4.4-.6-.3.2-.4.4-.4.6Zm1.1.7v-.3.3Zm.6-1.6l-.1-.1-.2.9c.1-.2.2-.5.3-.8Zm-.2,2.7h0c0,.1,0,0,0,0Zm.2-5.7v-.2.2q-.1,0,0,0Zm6.4-7v.9-.9Zm0,2.1h0l.1.3h-.1v-.3Zm.5,8.6h-.2l.1-.5c0,.2.1.3.1.5Zm0-8.3h0l-.1-.2h.1v.2Zm0,6.6h0q0-.2,0,0Zm-.1-7.1l.1-.1q0,.3-.1.1Zm.1,6.5h0v-.4h0v.4Zm0-9.5h0l.1-.2h-.1v.2Zm.1.9h0c-.1,0-.1-.1,0-.1q0-.1,0,.1Zm0-.3h0s-.1-.1,0,0c0-.2,0-.1,0,0Zm.1,1.3h.2-.2Zm.7,10.5l-.2.1c0,.1,0,.2.1.2,0-.1,0-.2.1-.3Zm0,.7v.7l.1-.2-.1-.5Zm.9-6.9h0l-.2.1c.5-.8.6-1.6.5-2.6l-.2.5c0,.3-.1.5-.2.7-.1-.2-.1-.5,0-.8s0-.7-.2-1c-.1.4-.1.8,0,1.1-.1.8-.1,1.6,0,2.4h.1c-.1-.2,0-.3.2-.4v.7h0v-.7h0Zm-.4,5l.2.4.1-.1c-.1-1.3-.2-1.4-.3-.3Zm.2-1.9v-.6c-.1.2-.1.4,0,.6Zm0-6.9v-.1l-.1-.2.1.3Zm.2,5.3h0v-.2h0v.2Zm.1-4.8h0v.8h0v-.8Zm.2-1v-.3c-.1.3-.1.5-.1.6.1.2.1.1.1-.3Zm-.1,1.2v-.4h-.1l.1.4Zm.4-.6h0c-.1.2-.1.5-.1.8l.2-.3h0c-.1-.2-.1-.3-.1-.5.1,0,.1.1.1.1l.1-.4-.2.3Zm0-1.1h0v.2h0v-.2Zm.3.7v-.8c-.2.3-.2.5,0,.8Zm0,7.4v.2q-.1-.1,0-.2Zm0,.6v-.4.4Zm.5-6.5c-.1.2-.1.4,0,.6v-.6Zm.2-.7v-.3.3h0Zm.4,11l-.2.1c.1-.1.1-.2,0-.3.1-.1.2,0,.2.2Zm.1-11.5v-.2l-.3.3.3-.1Zm.8.5v.1c-.1-.2-.1-.4,0-.6v.2c.1.1.1.2,0,.3Zm.4.6v-.5l.1.1c-.2,1-.3,1.9-.1,2.8-.3.5-.5.9-.4,1.4.1-.9.2-1.8.2-2.6.1-.1.1-.2.1-.4-.1-.2,0-.5.1-.8Zm-.3-.3h0q-.1-.1,0,0Zm.3,3.5h0l.1-.6-.1.6Zm0,1.2h0v.4h0v-.4Zm0,3.9h0v.2-.2Zm.2,4.1q-.1.1,0,0h0Zm.2-2.4l.2-.8c.1.3,0,.5-.2.8h0Zm0-3.2l.1-.1-.1.1Zm.2,3.9l-.1.1q-.1-.3.1-.1Zm0-4.3l-.1.3c-.1-.1,0-.2.1-.3Zm.8-15.6h0l-.3.2.3-.2Zm.2,23.9v.2h-.1l.1-.2Zm.4-21.4h0v.2h0v-.2Zm.2.3l.3-.3c-.3,0-.4.1-.3.3Zm.2,1.1h0l-.1.2.1-.2Zm.1-1.7h0l-.1.1c.1,0,.2,0,.1-.1Zm14.4,13.2l.1.2c-.1,0-.1.1-.1.1v-.3Z"/>
          <path class="cls-2" d="m184.5,74.7h0c-.4-.1-.7-.2-1-.4-1.4-.6-2.1-1.6-2.3-2.9.1-.5.4-.9.9-1.1.9-.8,2-1.4,3.3-1.8.2,0,.3,0,.4-.2l.1.1c.4,0,.8.1,1.2.1.6,0,1.3,0,1.9.2.1-.1.1-.2.1-.4l-.1-.1-.1.2c-.1-.3,0-.5.2-.8-.1-.4-.1-.8-.2-1.2.1-.2,0-.3-.1-.5-.5.4-1,.4-1.4.1l-.5-.4h-.1c-1.2-.6-2.3-1.3-3.3-2.1,0-.4-.2-.7-.5-1-.1-.7.1-1.3.5-1.9-.2-.1-.2-.2-.1-.4.5-.3,1-.5,1.7-.6.1-.1.2-.1.4,0,1.1,0,2.1.3,2.9,1,.1-1.1.2-2.2.2-3.3-.1-.4-.2-.8-.2-1.2.5-.5,1.1-.7,1.9-.6.6-.3,1.3-.3,2,0l.2.2h.5q0,.1.1.2c.5-.3,1-.4,1.5-.2.2.6.4,1.2.6,1.7,0,2.2-.2,4.3-.7,6.3,0,.4-.1.8-.1,1.2l.3-.2c-.1.5-.3.9-.5,1.3l.1.2c-.2,1.3-.2,2.6-.2,4,.1.2.1.3.1.5h.2c0,.5-.1.9-.2,1.3.4.9.5,1.9.3,2.8.2.2.3.4.4.6-.1.3-.1.6-.1.9-.2.3-.2.6-.2.9-.4.3-.7.6-.8,1-.8.5-1.6.5-2.4.1-.3-.4-.8-.6-1.3-.7-1.1-.5-1.7-1.2-1.8-2.1-.4-.2-.6-.5-.7-.8.1.2.3.3.7.1.1-.2.2-.5.1-.8-.4.1-.8.2-1.2.4-.1.2-.3.2-.4.1-.4.1-.7.2-1.1.3l-.3-.3c-.2.1-.2.2-.1.3v.1c-.3,0-.5-.1-.5-.3,0,.2-.1.1-.3.1Zm30.6-24.3l-.5.2c-.9,0-1.6.4-2.2,1.2-.8.4-1.6.5-2.5.5-.5.2-1,.2-1.5,0s-1-.6-1.2-1.1c-1.3.1-2.6.2-3.9.4-.7-.1-1.3,0-1.9.2-1,.1-2,.2-3,.3-.3.8-.7,1.6-1.2,2.3-.5-.1-1-.1-1.3.2,0,.3-.2.5-.6.5-1.6-.3-3-.8-4.4-1.4-.7-.5-1.5-.9-2.5-1l-.1.2-.1-.1c-.3,0-.7-.1-1-.2-.9.1-1.6,0-2.4-.3-.2.2-.5.2-.7.1-.1-.1-.2-.2-.3-.3h-.3c-.7-.4-1.2-.9-1.7-1.5-.4-.6-.4-1,0-1.5-.2-.1-.3-.3-.2-.5,1.7-.4,3.5-.5,5.3-.3-.1-.1-.1-.2.1-.5.5-1.1,1.3-2,2.3-2.8.5-.1.9-.4,1.2-.7.4.3.9.4,1.4.3,1,.1,1.9.1,2.9.1l2,.8c.3.7.8,1.3,1.4,1.7l.2-.2c.2.5.3,1,.5,1.5q-.1.1-.1.2c.1.2.3.2.4,0h0c.1.1.2,0,.2-.2v.1c.5-.1,1-.2,1.5-.2.5-.1,1-.1,1.6-.3.4,0,.7-.1,1-.4l1.3-.1c0,.1,0,.2.1.2.1-.1.2-.2.5-.2.1,0,.3,0,.3-.2-.1-.4,0-.8.4-1.1.9-.6,1.8-1.1,2.8-1.5s1.9-.3,2.6.3c.5.1.9.3,1.2.6.5.2.9.5,1.1,1l.4.2v1.8c.4.1.6.3.7.5s.3.7.2,1.2Zm-30.7,24.4q.1,0,0,0h0Zm27.8-11.8l-1.1-.1c-.7.8-1.7,1.3-2.7,1.7q-.1-.1-.2-.1c-.2.2-.4.4-.7.4l-.3-.1.2-.3h0c-.5.2-.7.6-.7,1-.3.8-.4,1.5-.4,2.3,0,.5-.1.9-.2,1.3.2.6.2,1.1.1,1.8,0,.2-.1.4-.2.6l-.2.4c.2.1.2.3.1.5.1.1.2,0,.3-.1.1.7.5,1.1,1.2,1.3.7.1,1.4.4,1.9.8.5.6.8,1.3.9,2,0,.5-.1.9-.3,1.2-.4,1-1.1,1.6-2.4,1.9-.8.2-1.5.4-2.4.3h0c-1-.5-1.9-1-2.7-1.6-.4-.2-.8-.4-1.1-.7-.7-.5-1.4-1-2-1.5-.3-.2-.3-.6-.1-1,1-.5,2-1,2.9-1.7-.1-2.7-.1-5.3-.1-8-.6-.2-1.1-.4-1.5-.8-.3-.2-.7-.3-1-.3-.9-.9-1.7-1.9-2.4-3-.3-.1-.4-.2-.3-.5.1,0,.1-.1.1-.2h-.5c.1-.3.2-.6.2-1,.5-.9,1.3-1.6,2.3-1.9.7-.3,1.6-.4,2.5-.2.8-.1,1.5-.4,2-1-.1-.8.1-1.5.7-2.1.7-.2,1.5-.1,2.2.3.6.6,1,1.2,1.1,2.1,2.1.4,3.8,1.4,5.1,3.1.3.6.3,1.3.1,1.9-.4.4-.6.8-.4,1.3Zm-15.6-17.5l.3.3v-.2c-.1-.1-.2-.1-.3-.1Zm3.2,3.7h0c.2,0,.4-.1.4-.3h-.2c-.2.1-.5.2-.8.2l-.1-.1v.2c.1,0,.4,0,.7,0Zm-.5-.6l.1-.1c0,.1-.1.1-.1.1q0,.1,0,0Zm1.5.3l.2.1c.5,0,1.1-.1,1.5-.3-.6-.2-1.1-.1-1.7.2Zm2.7-.4h-.4.4Zm0-.3v.3h.4-.1c-.2-.1-.3-.2-.3-.3Zm1.6,24.4h0v-.4h0v.4Zm.3-3.4v.4c.1-.1.1-.3,0-.4Zm0,.9h0v-.3h0v.3Zm.2.9h0v-.3h0v.3Zm.2-2.7l.1.2-.1-.2h0Zm.4,3.9h0s.1,0,0,0h0c-.1.1,0,0,0,0Zm0-.3h0v.1c0,.1,0,0,0-.1Z"/>
        </g>
      </g>
    </g>
  </g>
</svg>