<?xml version="1.0" encoding="UTF-8"?>
<svg id="Layer_2" data-name="Layer 2" xmlns="http://www.w3.org/2000/svg" viewBox="0 0 346 249.36">
  <defs>
    <style>
      .cls-1 {
        fill: none;
      }

      .cls-2 {
        fill: #fff;
      }

      .cls-3 {
        isolation: isolate;
      }
    </style>
  </defs>
  <g id="Layer_1-2" data-name="Layer 1">
    <g>
      <rect class="cls-1" width="346" height="249.36"/>
      <g>
        <g>
          <path class="cls-2" d="m56.04,99.98c2.31,3.55,63.63,31.13,67.24,33.09,1.31.71,8.06-.11,9.62-.2,3.97-.23,14.18-3.79,15.97-5.92.58-.69.95-27.3.25-27.94-3.85-3.51-8.62-4.17-10.47-5.62-.69-.54-7.09-5.6-10.75-7.36-2.65-1.27-19.31-2.66-21.14-3.2-15.79-4.57-24.67-14.1-33.25-18.48-1.55-.79-7.29-1.06-8.14-.71-.7.29-7.58,5.13-8.5,6.73-1.27,2.19-3.53,25.46-.83,29.61Z"/>
          <path class="cls-2" d="m68.98,133.88c-4.06,16.91,9.79,31.11,11.23,32.16,5.37,3.91,14.42,7.7,25.56,14.67,4.01,2.51,20.06-.25,24.67-8.24.91-1.58.64-17.84.13-18.45-2.16-2.63-10.58-8.54-11.85-9.45-11.03-7.96-36.65-17.62-38.79-17.62-3.39,0-10.61,5.49-10.95,6.93Z"/>
          <path class="cls-2" d="m86.43,179.61c-2.3,1.05-4.08,4.49-5.29,8.93-.66,2.41-.35,5.69-.02,6.82,2.31,7.98,11.42,19.52,24.83,19.53,5.79,0,17.98-5.8,19.08-7.76,1.08-1.91.15-14.17-2.13-16.31-4.6-4.32-13.83-2.04-14.99-3.07-5-4.4-20.18-8.74-21.48-8.14Z"/>
          <path class="cls-2" d="m148.44,152.74c-.86.22-5.05,8.52-5.56,10.39-1.26,4.64-.32,12.06-.87,13.57-1.64,4.48-5.76,7.23-8.12,12.72-.69,1.61-.72,16.75-.14,17.45,1.62,1.95,12.55,3.32,17.64,1.36,12.95-5,17.74-26.79,17.4-34.64-.25-5.83-2.76-13.85-8.79-18.67-.57-.46-9.35-2.75-11.56-2.18Z"/>
          <path class="cls-2" d="m190.4,196.35c-6.29-2.45-.99-34.15-1.28-39.53-.09-1.67-1.71-6.28-2.4-7.63-.47-.93-8.53-1.27-9.27-.43-1.47,1.67-4.58,42.49-4.58,47,0,2.6,9.34,14.12,10.83,14.55.88.26,13.42.15,17.05-.41,8.57-1.32,13.07-2.48,16.61-6.64,2.31-2.72,4.62-16.36,3.97-18.27-1.27-3.72-8.16-10.02-11.79-9.13-3.16.76-15.74,21.81-19.14,20.49Z"/>
          <path class="cls-2" d="m244.47,78.65c-.84.1-13.59,12.69-14.4,14.18-10.36,18.98-17.87,33.32-18.51,34.14-8.23,10.54-12.27,11.98-14.38,17.3-.75,1.9-.5,10.41-.36,10.92,1.37,5.3,5.8,12.2,10.92,12.2,11.98,0,23.92-15.97,27.52-26.73,1.15-3.44.72-8.18,3.07-14.97,2.09-6.04,2.97-8.09,3.56-9.3,2.56-5.28,5.16-8.51,6.43-10.88,3.83-7.13,7.8-28.3-3.85-26.86Z"/>
          <path class="cls-2" d="m228.17,214.36c-3.99-1.79-3.91-5.94-4.13-9.28-.2-3.01-.08-8.36,1.06-10.15,3.25-5.1,8.4-9.75,10.26-12.92,2.65-4.51,7.06-12.42,9.02-15.77,4-6.86,12.95-27.87,10.21-31.46-.51-.67-23.39.37-26.34-2.29-4.07-3.69-2.07-4.64,2.26-10.22,5.51-7.1,24.6-11.45,26.18-11.66,1.78-.23,5.3-.25,7.3.21,3.16.73,10.93,9.57,12.23,11.48,1.49,2.2,5.76,7.85,5.76,12.48,0,6.71-11.82,22.12-14.44,28.91-1.31,3.41-7.91,15.84-8.45,17.71-2.37,8.2-2.09,12.8-3.36,15.32-4.85,9.67-20.27,20.91-27.56,17.64Z"/>
        </g>
        <rect class="cls-1" x="125.2" y="36.35" width="107.77" height="49.17"/>
        <g class="cls-3">
          <path class="cls-2" d="m174.01,63.58l.05-.08c.55.62,1.08,1.25,1.57,1.89.55,1.09.55,2.16,0,3.19-.43,1.12-.75,2.23-.97,3.32.03.59.08,1.13.14,1.64-.03.84-.11,1.67-.23,2.48-.12.5-.4.83-.83.97-.25.25-.49.48-.74.67-.28,0-.52.07-.74.21-.49,0-.94-.08-1.34-.25l.05.38-.05-.04c-.31.14-.52.31-.65.5-.31-.17-.57-.17-.79,0-.34.17-.69.28-1.06.34-.46-.17-.94-.28-1.43-.34-1.05-.06-2.08.01-3.09.21-.46.17-.92.27-1.39.29-1.08-.34-2.14-.42-3.19-.25-1.76.42-3.48.35-5.17-.21-2.09.36-4.14.29-6.14-.21-1.11-.11-1.94-.62-2.49-1.51-.4-.17-.75-.06-1.06.34.31.31.66.56,1.06.76l-.09.13c.25.17.37.38.37.63-.55.48-1.15.77-1.8.88-.28.2-.57.29-.88.29l-.42-.21c-.09.22-.28.25-.55.08-1.26-.22-2.06-.85-2.4-1.89-.37-.22-.59-.56-.65-1.01,0-.45-.17-.87-.51-1.26,0-.56-.14-1.09-.42-1.6l-.05.04c-.06-.2.03-.39.28-.59l.09-.08c-.12-.11-.25-.13-.37-.04l.23-.13c.09-.17.08-.29-.05-.38.15-.17.17-.41.05-.71,0-.42-.02-.85-.05-1.3h-.14l-.19-1.13-.05.04c.15-.73.21-1.46.18-2.18.12-.92.14-1.86.05-2.81.28-.36.29-.74.05-1.13.34-2.27.66-4.55.97-6.84.15-.45.31-.9.46-1.34.03-.03.08-.01.14.04.09-.22.29-.41.6-.55.28.25.56.23.85-.06.29-.29.61-.31.95-.06-.06.14-.03.25.09.34.15-.28.4-.38.74-.29l.05.59c.19-.08.38-.2.6-.34-.06.11-.05.2.05.25.31-.25.66-.21,1.06.13.52.31.83.74.92,1.3-.15.11-.22.24-.19.38l.28.13c-.19.48-.31.94-.37,1.39-.09.64-.22,1.27-.37,1.89,0,.28-.06.53-.18.76.25-.14.4-.36.46-.67-.12.48-.25.94-.37,1.39.09.08.18.06.28-.08.06-.03.08-.08.05-.17-.09.28-.29.48-.6.59v.42c.19.06.31,0,.37-.17.03.59-.02,1.16-.14,1.72l.32-.08c-.12.53-.31,1.02-.55,1.47v1.05c-.15.14-.23.29-.23.46.15-.03.29-.11.42-.25-.03.08-.03.17,0,.25-.03-.03-.06-.07-.09-.13-.12.08-.14.17-.05.25-.12.84-.17,1.68-.14,2.52h-.04c.09.45.21.88.37,1.3.03.06.09.07.19.04.15.56.28,1.11.37,1.64,0,.34.14.57.42.71-.06.25-.12.48-.18.67l.32.25.14-.13c-.15-.06-.2-.17-.14-.34h.14c-.06.2-.05.36.05.5-.15.53-.26,1.06-.32,1.6.34.11.68.13,1.02.04.62.03,1.22.14,1.8.34l2.36-.21c-.03-.17-.14-.32-.32-.46.09-.03.15-.1.18-.21,0-.7-.14-1.39-.42-2.06.28-.17.49-.36.65-.59.06-.31.09-.63.09-.97h.05c-.28-.53-.17-.92.32-1.18.03-.48,0-.95-.09-1.43.09-.42.2-.87.32-1.34-.15-.62-.17-1.25-.05-1.89l.18,3.65h.19c.03-.42.03-.85,0-1.3.09-.31.12-.63.09-.97-.19-.34-.2-.71-.05-1.13l.05.04c.15-.22.12-.43-.09-.63v-.63c.15.14.25.07.28-.21v.08h-.05c.15.22.15.43,0,.63.09.11.2.1.32-.04.18-.28.21-.59.09-.92-.03-.39-.09-.77-.18-1.13-.12.42-.31.78-.55,1.09l.37-.04c-.12.17-.25.29-.37.38,0-.5.09-1.01.28-1.51-.06-.14-.11-.29-.14-.46l-.18.17c.15-.36.23-.74.23-1.13.12.42.25.84.37,1.26.18-.31.28-.64.28-1.01-.12-.56-.18-1.15-.18-1.76h.05c.03-.25-.03-.49-.18-.71l-.18.08c-.06.36-.02.69.14.97.03.39-.08.67-.32.84.06-.2.08-.41.05-.63l-.23.17c.21-.39.26-.81.14-1.26.09-.06.12-.15.09-.29l.18.13c.15-.67.26-1.36.32-2.06-.15-.17-.2-.39-.14-.67.09-.11.09-.28,0-.5.09-.95.09-1.9,0-2.86-.22.78-.25,1.57-.09,2.35-.18.98-.28,1.96-.28,2.94l-.19.29c-.06-1.18-.08-2.37-.05-3.57l-.19.17v-.5c-.06,0-.11.01-.14.04-.03-.17.06-.28.28-.34-.03.08-.02.14.05.17h.05v-.42l-.23.08c.31-.34.38-.74.23-1.22-.12.03-.17.08-.14.17-.03-.03-.06-.07-.09-.13-.22.31-.39.6-.51.88l.09-1.22.09.29c.19-.36.31-.76.37-1.18l-.09-.13c.06-.17.12-.38.18-.63l-.28-.21c-.19.56-.26,1.12-.23,1.68.09-.98.11-1.96.05-2.94.28-1.04.38-2.11.32-3.23-.15.17-.29.34-.42.5.09-.67.06-1.36-.09-2.06.74.03,1.46.13,2.17.29.83-.2,1.51.01,2.03.63.25-.06.48,0,.69.17.4.17.82.32,1.25.46.4.28.82.53,1.25.76l-.28.25c.34.34.74.57,1.2.71.18.64.06,1.23-.37,1.76l-.14.08c.22.22.32.46.32.71l.19-.13-.14.34c-.22-.03-.25-.18-.09-.46-.28.28-.45.62-.51,1.01,0-.34.05-.67.14-1.01-.37.2-.63.5-.79.92.18.31.18.62,0,.92l-.28-.08c-.25.36-.43.74-.55,1.13-.37.03-.59.27-.65.71.09.11.09.18,0,.21l-.37-.59c-.12.03-.22.1-.28.21-.15.36-.28.71-.37,1.05.12-.08.25-.21.37-.38.06.5.14.99.23,1.47-.12,0-.18.04-.18.13-.03.08-.02.15.05.21l.14-.13c-.09.11-.11.22-.05.34l.18-.04c-.12.53-.23,1.05-.32,1.55.12.17.11.35-.05.55-.03.87-.08,1.71-.14,2.52.28.53.23.99-.14,1.39-.03.56-.05,1.09-.05,1.6-.12.81-.25,1.61-.37,2.39-.09.08-.18.13-.28.13.09-.39.14-.8.14-1.22-.06.06-.11.07-.14.04v-.17c.12-.03.18-.13.18-.29l.09-1.97c-.15-.36-.22-.76-.18-1.18.03-.36.09-.74.18-1.13-.09-.08-.12-.2-.09-.34,0,.08.03.13.09.13.06-.11.09-.24.09-.38-.03-.06-.09-.08-.18-.08-.06-.28-.06-.56,0-.84-.09-.22-.18-.45-.28-.67.03-.14-.03-.21-.18-.21.31-.73.49-1.51.55-2.35l-.14-.13-.32.34-.05-.04-.23.25c.03-.2-.02-.36-.14-.5-.19.5-.25,1.01-.19,1.51-.03.92-.08,1.83-.14,2.73-.12.31-.08.59.14.84-.18.67-.2,1.34-.05,2.02.03,0,.08-.03.14-.08l-.05.29s-.06-.04-.09-.04c-.03.56-.02,1.11.05,1.64.12,1.15.14,2.27.05,3.36.18.22.18.38,0,.46.09.36.12.69.09.97l.09.42c.62-.64.92-1.43.92-2.35,0-.2.05-.42.14-.67.34-.14.52-.43.55-.88.19.48.19.92,0,1.34.06.84.03,1.67-.09,2.48l.19.17c.09-.45.32-.85.69-1.22-.09.48-.2.94-.32,1.39.06.2.06.38,0,.55.25.03.43-.08.55-.34-.03.17-.06.32-.09.46.28.17.57.22.88.17.12.25.12.49,0,.71.09.53.05,1.02-.14,1.47.09.34.14.66.14.97-.28.22-.39.45-.32.67-.12.08-.12.18,0,.29,2.15.06,4.3-.08,6.42-.42.46-.34.71-.8.74-1.39l-.09-.08c.71-1.79,1.02-3.67.92-5.63-.18-.78-.26-1.58-.23-2.39.19-.48.17-.97-.05-1.47-.03-.17-.02-.35.05-.55,0,.03.02.04.05.04-.03-.59.18-1.13.65-1.64,1.48-.95,3.08-1.09,4.8-.42.37-.14.75-.11,1.15.08h-.09c.43.45.94.77,1.52.97l.14.13-.14.08.28.25.19.14Zm-34.83,13.1l.18.29v-.13l-.18-.16Zm4.02-11.21h.09c.03-.2.12-.39.28-.59-.22.14-.34.34-.37.59Zm1.11.63l.05-.29c-.07.11-.09.2-.05.29Zm.6-1.51l-.14-.13-.23.92c.18-.22.3-.49.37-.79Zm-.19,2.64s0,.05.02.06c.02.02.01,0-.02-.06Zm.19-5.71v-.17l-.14.25s.07-.05.14-.08Zm-.05,5.29s-.03.01,0,.04v-.04Zm6.47-12.22l-.05.92c0-.58.02-.89.05-.92Zm-.05,2.1h.05v.34h-.05v-.34Zm.55,8.57l-.18.04.05-.55c.06.17.1.34.13.51Zm-.04-8.27h-.09v-.21h.09v.21Zm0,6.55l.05.08h-.14c.09-.25.12-.28.09-.08Zm-.05-7.1l.14-.08c-.06.28-.11.3-.14.08Zm.09,6.55h-.05v-.38h.05v.38Zm0-9.57h.05v-.21h-.05v.21Zm.1.88l-.05.08c-.03-.08-.03-.15,0-.19.03-.04.05,0,.05.11Zm0-.3v.08c-.06-.08-.08-.14-.05-.17.03-.02.05.01.05.09Zm.04,1.31l.09.08.09-.04s-.11-.04-.18-.04Zm.74,10.49l-.19.08c-.03.11,0,.18.09.21,0-.08.04-.17.1-.29Zm0,.72v.71l.09-.17-.09-.54Zm.93-6.85h-.05l-.18.08c.46-.78.62-1.65.46-2.6l-.23.5c0,.31-.08.55-.23.71-.12-.25-.11-.5.05-.76.06-.34,0-.66-.18-.97-.12.39-.11.77.05,1.13-.15.81-.15,1.61,0,2.39h.09c-.06-.2,0-.31.18-.34v.63h.05v-.77h0Zm-.42,4.96l.19.42.09-.13c-.09-1.31-.19-1.41-.28-.29Zm.19-1.89v-.63c-.13.22-.13.43,0,.63Zm0-6.89v-.13l-.09-.21.09.34Zm.18,5.33h.05v-.21h-.05v.21Zm.09-4.82h-.05v.76h.05v-.76Zm.23-.97l-.05-.34c-.12.34-.15.55-.07.65s.12,0,.12-.31Zm-.09,1.13l.05-.38h-.09l.04.38Zm.42-.54l-.05-.08c-.06.31-.08.6-.05.88l.23-.29-.05-.04c-.15-.17-.15-.32,0-.46.03.03.05.06.05.08l.14-.42-.27.33Zm0-1.09h-.05v.25h.05v-.25Zm.27.63v-.8c-.15.31-.15.57,0,.8Zm0,7.43l-.05.17c-.02-.06-.01-.11.05-.17Zm-.04.59v-.42c.03.16.03.3,0,.42Zm.51-6.51c-.06.22-.06.43,0,.63v-.63Zm.27-.72v-.29l-.14.42.14-.13Zm.37,11.01l-.19.13c.06-.08.06-.18,0-.29.13-.1.19-.04.19.16Zm.14-11.43v-.21l-.28.34.28-.13Zm.79.42v.13c-.12-.2-.11-.39.05-.59l-.05.17c.06.08.06.18,0,.29Zm.41.59l-.05-.46.14.08c-.22.95-.26,1.89-.14,2.81-.31.45-.45.92-.42,1.43.09-.87.17-1.75.23-2.65.12-.08.15-.22.09-.42-.05-.19,0-.45.15-.79Zm-.37-.25l-.05.04c.01-.11.02-.12.05-.04Zm.33,3.53h-.14l.18-.59-.04.59Zm0,1.13h.05v.42h-.05v-.42Zm.04,3.95l-.05-.04.05.21v-.17Zm.14,4.11c-.06.06-.06.07,0,.04l.05-.04h-.05Zm.19-2.43l.19-.84c.09.31.05.57-.14.8l-.05.04Zm.04-3.15s.06-.07.09-.13l-.09.13Zm.23,3.82l-.14.13c-.12-.26-.07-.3.14-.13Zm-.04-4.28l-.09.34c-.07-.12-.04-.23.09-.34Zm.83-15.54h-.09l-.19.17.28-.17Zm.18,23.81v.21h-.14l.14-.21Zm.37-21.33h-.05v.17h.05v-.17Zm.19.29l.32-.34c-.28.03-.39.15-.32.34Zm.18,1.09v.08l-.14.13.14-.21Zm.14-1.72v-.08l-.14.21c.16.03.2-.02.14-.13Zm6.01,13.94s-.01-.03-.02-.02c-.02.01.01.04.07.06l-.05-.04Zm8.4-.71l.09.17c-.06.03-.09.06-.09.08v-.25Z"/>
          <path class="cls-2" d="m184.54,74.79v-.04c-.37-.08-.71-.21-1.02-.38-1.36-.64-2.12-1.62-2.31-2.94.12-.53.42-.91.88-1.13.89-.81,2-1.4,3.33-1.76.15.03.29-.03.42-.17l.14.08c.4.03.8.07,1.2.13.65-.03,1.28.03,1.89.17.06-.11.09-.24.09-.38l-.14-.13-.14.17c-.06-.28,0-.53.19-.76-.09-.36-.15-.76-.19-1.18.06-.17.03-.32-.09-.46-.49.36-.97.39-1.43.08l-.55-.38-.09.04c-1.2-.59-2.29-1.3-3.28-2.14-.03-.36-.2-.69-.51-.97-.09-.67.08-1.3.51-1.89-.15-.08-.18-.21-.09-.38.49-.31,1.05-.5,1.66-.59.09-.11.23-.1.42.04,1.11,0,2.06.32,2.86.97.12-1.06.2-2.16.23-3.28-.09-.39-.17-.78-.23-1.18.49-.5,1.11-.7,1.85-.59.62-.31,1.28-.31,1.99,0l.23.21.51.04c-.03.08,0,.14.09.17.46-.34.97-.39,1.52-.17.21.59.42,1.16.6,1.72.03,2.16-.22,4.27-.74,6.34-.03.42-.08.81-.14,1.18l.32-.21c-.12.48-.28.92-.46,1.34l.14.21c-.18,1.32-.25,2.63-.18,3.95.09.17.14.34.14.5h.23c-.03.48-.09.92-.19,1.34.37.92.48,1.86.32,2.81.18.2.32.41.42.63-.09.31-.12.6-.09.88-.18.28-.25.59-.18.92-.37.28-.65.6-.83.97-.83.45-1.62.49-2.36.13-.34-.39-.77-.63-1.29-.71-1.11-.45-1.71-1.16-1.8-2.14-.37-.17-.59-.45-.65-.84.12.22.34.27.65.13.15-.25.18-.53.09-.84-.43.11-.83.25-1.2.42-.12.17-.26.2-.42.08-.37.14-.74.25-1.11.34l-.28-.34c-.22.08-.25.2-.09.34v.08c-.31-.03-.48-.12-.51-.27-.04-.12-.15-.19-.33-.16Zm30.53-24.31l-.55.21c-.89.03-1.62.42-2.17,1.18-.8.36-1.63.52-2.49.46-.49.22-.99.22-1.48,0-.55-.25-.97-.62-1.25-1.09-1.32.11-2.62.25-3.88.42-.65-.06-1.26.03-1.85.25-1.02.14-2.03.24-3.05.29-.31.81-.71,1.57-1.2,2.27-.55-.14-.99-.07-1.29.21.03.31-.17.46-.6.46-1.57-.28-3.05-.76-4.43-1.43-.68-.53-1.49-.87-2.45-1.01l-.09.17-.14-.08c-.34.03-.66-.06-.97-.25-.86.11-1.65.01-2.36-.29-.22.17-.45.2-.69.08-.06-.14-.17-.25-.32-.34-.12-.03-.22-.01-.28.04v.04c-.68-.39-1.25-.91-1.71-1.55-.43-.56-.43-1.05,0-1.47-.22-.14-.28-.32-.18-.55,1.69-.39,3.45-.49,5.27-.29-.12-.08-.08-.24.14-.46.49-1.09,1.26-2.03,2.31-2.81.46-.14.86-.38,1.2-.71.4.28.88.39,1.43.34.95.08,1.92.13,2.91.13l2.03.84c.28.7.75,1.27,1.43,1.72l.18-.21c.18.48.35.97.51,1.47-.06.08-.09.15-.09.21.12.17.26.17.42,0,0,.03.01.04.05.04.12.06.2,0,.23-.17v.13c.46-.11.96-.17,1.48-.17.52-.06,1.05-.15,1.57-.29.4-.03.72-.15.97-.38l1.29-.13c-.03.11,0,.17.09.17.06-.14.21-.2.46-.17.15.03.26-.04.32-.21-.12-.42,0-.8.37-1.13.86-.62,1.8-1.11,2.82-1.47,1.02-.39,1.89-.28,2.63.34.46.08.86.28,1.2.59.55.17.92.52,1.11,1.05l.37.17.05,1.76c.37.11.62.27.74.48s.09.58-.06,1.14Zm-30.62,24.35s.06-.01.09-.04l-.09.04Zm27.76-11.76l-1.11-.13c-.74.78-1.65,1.34-2.73,1.68-.06-.08-.14-.11-.23-.08-.15.22-.37.36-.65.42l-.28-.08.23-.29-.05-.04c-.46.22-.69.56-.69,1.01-.28.78-.4,1.55-.37,2.31-.03.45-.11.87-.23,1.26.19.56.22,1.15.09,1.76-.03.22-.09.43-.18.63l-.18.38c.15.14.18.32.09.55.09.06.18.01.28-.13.06.7.45,1.12,1.18,1.26.72.14,1.35.39,1.87.76.46.62.75,1.27.88,1.97,0,.45-.11.85-.32,1.22-.37.98-1.15,1.62-2.36,1.93-.77.25-1.55.36-2.36.34v-.04c-.99-.45-1.89-.98-2.73-1.6-.4-.2-.77-.42-1.11-.67-.71-.48-1.39-.97-2.03-1.47-.31-.25-.35-.57-.14-.97,1.02-.48,1.99-1.05,2.91-1.72-.06-2.66-.11-5.32-.14-7.98-.58-.17-1.08-.43-1.48-.8-.34-.17-.66-.27-.97-.29-.92-.92-1.71-1.93-2.36-3.02-.28-.08-.37-.24-.28-.46.06-.03.09-.08.09-.17h-.51c.15-.31.23-.64.23-1.01.49-.92,1.26-1.57,2.31-1.93.74-.34,1.57-.41,2.49-.21.83-.08,1.51-.41,2.03-.97-.09-.81.15-1.51.74-2.1.74-.25,1.46-.14,2.17.34.62.56.97,1.25,1.06,2.06,2.12.39,3.83,1.41,5.13,3.07.28.64.32,1.29.14,1.93-.43.32-.59.75-.43,1.28Zm-15.62-17.55l.28.34v-.25c-.09-.06-.18-.09-.28-.09Zm3.19,3.7v.04c.25,0,.38-.13.42-.38l-.18-.04c-.25.14-.51.21-.79.21l-.14-.13-.05.25c.22.06.46.08.74.05Zm-.46-.55s.08-.06.14-.08c-.06.06-.1.09-.12.1-.01.02-.02,0-.02-.02Zm1.52.25l.19.08c.55.03,1.06-.08,1.52-.34-.61-.07-1.18.01-1.71.26Zm2.64-.37h-.05c-.15-.03-.28-.01-.37.04.12,0,.26-.02.42-.04Zm0-.3v.29l.37-.04h-.09c-.13-.02-.22-.11-.28-.25Zm1.61,24.36h.05v-.38h-.05v.38Zm.33-3.4l.05.42c.05-.12.04-.26-.05-.42Zm0,.92h.05v-.34h-.05v.34Zm.18.92h.05v-.34h-.05v.34Zm.23-2.68l.09.25v-.17l-.09-.08Zm.37,3.86l.05-.04s.02.04.05.04c-.06.03-.1.05-.12.06-.02.02,0,0,.02-.06Zm.05-.25l-.05-.08h.14c-.06.11-.1.18-.12.21-.01.02,0-.02.03-.13Z"/>
        </g>
      </g>
    </g>
  </g>
</svg>